# xmcd
#
# Track frame offsets:
# 150
# 11215
# 24822
# 39610
# 55400
# 65862
# 80465
# 94465
# 106660
# 118427
# 130402
# 145070
# 155157
# 164475
# 174412
# 185730
#
# Disc length: 2659 seconds
#
#
# Revision: 0
# Processed by: cddbd v1.5.2PL0 Copyright (c) Steve Scherf et al.
# Submitted via: FreeRIP 2.945 
#
DISCID=ea0a6110
DTITLE=Willie Nelson - Legends - Willie Nelson - CD3
DYEAR=2004
DGENRE=Country
TTITLE0=Good Times
TTITLE1=Good Hearted Woman
TTITLE2=Bloody Merry Morning
TTITLE3=What Can You Do To Me Now
TTITLE4=December Day
TTITLE5=Yesterday's Wine
TTITLE6=If You Can Touch Her At All
TTITLE7=You Ought To Hear Me Cry
TTITLE8=One In A Row
TTITLE9=Once More With Feeling
TTITLE10=Sweet Memories
TTITLE11=Bring Me Sunshine
TTITLE12=Blackjack Country Chain
TTITLE13=Are You Sure
TTITLE14=Mammas Don't Let Your Babies Grow Up To Be Cowboys (with Waylon Jennings)
TTITLE15=Don't Cuss The Fiddle (with Waylon Jennings)
EXTD=
EXTT0=
EXTT1=
EXTT2=
EXTT3=
EXTT4=
EXTT5=
EXTT6=
EXTT7=
EXTT8=
EXTT9=
EXTT10=
EXTT11=
EXTT12=
EXTT13=
EXTT14=
EXTT15=
PLAYORDER=
